<?xml version="1.0" encoding="UTF-8"?>
<svg width="1753.82" height="264.66" viewBox="0 0 1753.82 264.66" fill="none" xmlns="http://www.w3.org/2000/svg" role="img" aria-labelledby="title desc">
  <title id="title">Falcon Academy logo</title>
  <desc id="desc">Black italic FALCON.ACADEMY wordmark with red, green and black short lines under FALCON.</desc>
  <path d="M 42 161.67 L 76.53 161.67 L 83.92 117.17 L 138.95 117.17 L 143.6 89.12 L 88.56 89.12 L 92.15 67.21 L 150.51 67.21 L 155.4 37.99 L 62.51 37.99 L 42 161.67 Z M 138.29 161.67 L 177.15 161.67 L 186.61 141.32 L 227.94 141.32 L 230.43 161.67 L 268.21 161.67 L 246.8 37.99 L 200.31 37.99 L 138.29 161.67 Z M 198.98 114.76 L 199.46 113.7 C 206.45 98.74 213.01 84.29 219.46 69.28 C 220.98 84.29 222.7 98.74 224.54 113.7 L 224.7 114.76 L 198.98 114.76 Z M 274.84 161.67 L 362.65 161.67 L 367.49 132.45 L 314.18 132.45 L 329.87 37.99 L 295.34 37.99 L 274.84 161.67 Z M 430.82 163.66 C 461.6 163.66 486.25 144.4 494.57 115.18 L 459.77 115.18 C 455.63 126.79 445.75 133.78 433.05 133.78 C 419.77 133.78 413.21 126.13 413.21 111.86 C 413.21 91.04 423.83 65.88 447.66 65.88 C 458.71 65.88 464.69 72.92 464.85 84.64 L 499.62 84.64 C 501.05 54.59 480.2 36 448.59 36 C 405.82 36 378.68 71.2 378.68 112.1 C 378.68 145.22 400.35 163.66 430.82 163.66 Z M 556.08 163.66 C 598.07 163.66 625.88 129.37 625.88 87.53 C 625.88 54.25 604.13 36 573.85 36 C 531.08 36 503.94 71.2 503.94 112.1 C 503.94 145.22 525.61 163.66 556.08 163.66 Z M 557.64 133.78 C 544.95 133.78 538.47 125.97 538.47 111.78 C 538.47 90.85 549.52 65.88 572.25 65.88 C 584.95 65.88 591.43 73.67 591.43 87.8 C 591.43 108.38 580.81 133.78 557.64 133.78 Z M 624.88 161.67 L 659.41 161.67 L 666.88 116.51 C 667.73 111.52 669.29 101.82 670.78 90.69 C 674.84 101.4 678.75 110.96 681.33 116.51 L 701.91 161.67 L 737.11 161.67 L 757.61 37.99 L 723.08 37.99 L 715.54 83.31 C 714.61 89.2 713.04 99.32 711.63 109.37 C 708.31 100.41 704.73 91.2 702.66 86.55 L 680.58 37.99 L 645.39 37.99 L 624.88 161.67 Z M 767.82 163.23 C 776.53 163.23 784.5 156.59 785.93 148.15 C 787.66 137.52 780.51 128.7 770.15 128.7 C 761.44 128.7 753.47 135.34 752.07 143.82 C 750.31 154.44 757.46 163.23 767.82 163.23 Z M 788.99 161.67 L 827.85 161.67 L 837.3 141.32 L 878.64 141.32 L 881.13 161.67 L 918.9 161.67 L 897.5 37.99 L 851.01 37.99 L 788.99 161.67 Z M 849.68 114.76 L 850.16 113.7 C 857.15 98.74 863.71 84.29 870.16 69.28 C 871.68 84.29 873.4 98.74 875.24 113.7 L 875.4 114.76 L 849.68 114.76 Z M 983.73 163.66 C 1014.52 163.66 1039.17 144.4 1047.48 115.18 L 1012.69 115.18 C 1008.54 126.79 998.66 133.78 985.96 133.78 C 972.68 133.78 966.12 126.13 966.12 111.86 C 966.12 91.04 976.75 65.88 1000.57 65.88 C 1011.62 65.88 1017.6 72.92 1017.76 84.64 L 1052.53 84.64 C 1053.96 54.59 1033.11 36 1001.5 36 C 958.74 36 931.59 71.2 931.59 112.1 C 931.59 145.22 953.27 163.66 983.73 163.66 Z M 1044.15 161.67 L 1083.01 161.67 L 1092.47 141.32 L 1133.8 141.32 L 1136.3 161.67 L 1174.07 161.67 L 1152.66 37.99 L 1106.18 37.99 L 1044.15 161.67 Z M 1104.85 114.76 L 1105.33 113.7 C 1112.31 98.74 1118.87 84.29 1125.33 69.28 C 1126.84 84.29 1128.57 98.74 1130.4 113.7 L 1130.56 114.76 L 1104.85 114.76 Z M 1235.66 161.67 C 1273.75 161.67 1295.58 137.42 1301.83 99.91 C 1308.04 62.3 1285.22 37.99 1247.03 37.99 L 1201.21 37.99 L 1180.7 161.67 L 1235.66 161.67 Z M 1219.96 133.11 L 1231.01 66.55 L 1242.14 66.55 C 1262.97 66.55 1270.69 77.25 1266.95 99.91 C 1263.2 122.41 1252.26 133.11 1232.1 133.11 L 1219.96 133.11 Z M 1301.56 161.67 L 1397.34 161.67 L 1402.18 132.45 L 1340.9 132.45 L 1343.98 114.01 L 1400.51 114.01 L 1405.15 85.8 L 1348.63 85.8 L 1351.71 67.21 L 1412.96 67.21 L 1417.77 37.99 L 1322.07 37.99 L 1301.56 161.67 Z M 1408.56 161.67 L 1442.42 161.67 L 1450.31 113.85 C 1451.64 105.89 1453.63 90.11 1455.71 74.75 C 1457.19 89.95 1458.79 105.46 1459.96 113.85 L 1466.68 161.67 L 1494.57 161.67 L 1516.8 113.85 C 1520.86 105.14 1527.85 88.78 1534.33 73.27 C 1531.33 88.94 1527.93 105.54 1526.52 113.85 L 1518.63 161.67 L 1552.5 161.67 L 1573.01 37.99 L 1521.29 37.99 L 1503.86 76.67 C 1500.12 85.06 1494.06 99.4 1488.83 112.1 C 1487.74 99.4 1486.41 85.06 1485.35 76.67 L 1480.62 37.99 L 1429.06 37.99 L 1408.56 161.67 Z M 1605.2 161.67 L 1638.59 161.67 L 1645.54 119.49 L 1703.82 37.99 L 1663.24 37.99 L 1640.74 72.68 C 1638.24 76.59 1635.85 80.49 1633.51 84.48 C 1632.34 80.49 1631.09 76.59 1629.77 72.68 L 1617.81 37.99 L 1579.64 37.99 L 1612.18 119.49 L 1605.2 161.67 Z" fill="#050505"/>
  <rect x="42" y="200.66" width="224.54" height="18" fill="#C8102E"/>
  <rect x="287.54" y="200.66" width="224.54" height="18" fill="#00843D"/>
  <rect x="533.08" y="200.66" width="224.54" height="18" fill="#050505"/>
</svg>
